<svg version="1.1" viewBox="0.0 0.0 960.0 540.0" fill="none" stroke="none" stroke-linecap="square" stroke-miterlimit="10" xmlns:xlink="http://www.w3.org/1999/xlink" xmlns="http://www.w3.org/2000/svg"><clipPath id="gddfa21cc51_0_0.0"><path d="m0 0l960.0 0l0 540.0l-960.0 0l0 -540.0z" clip-rule="nonzero"/></clipPath><g clip-path="url(#gddfa21cc51_0_0.0)"><path fill="#ff00ff" d="m0 0l960.0 0l0 540.0l-960.0 0z" fill-rule="evenodd"/><path fill="#ffffff" d="m960.0 540.0026l0 -540.0l-968.4724 540.0z" fill-rule="evenodd"/><path stroke="#ffffff" stroke-width="1.0" stroke-linejoin="round" stroke-linecap="butt" d="m960.0 540.0026l0 -540.0l-968.4724 540.0z" fill-rule="evenodd"/><path fill="#000000" fill-opacity="0.0" d="m204.43832 0l514.61414 0l0 216.40945l-514.61414 0z" fill-rule="evenodd"/><path fill="#000000" d="m239.40707 114.30098l0 -7.71875l19.9375 0l0 18.25q-2.90625 2.8125 -8.421875 4.953125q-5.515625 2.140625 -11.171875 2.140625q-7.1875 0 -12.53125 -3.015625q-5.34375 -3.015625 -8.03125 -8.625q-2.6875 -5.609375 -2.6875 -12.203125q0 -7.15625 3.0 -12.71875q3.0 -5.5625 8.78125 -8.53125q4.40625 -2.28125 10.96875 -2.28125q8.53125 0 13.328125 3.578125q4.796875 3.578125 6.171875 9.890625l-9.1875 1.71875q-0.96875 -3.375 -3.640625 -5.328125q-2.671875 -1.953125 -6.671875 -1.953125q-6.0625 0 -9.640625 3.84375q-3.578125 3.84375 -3.578125 11.40625q0 8.15625 3.625 12.234375q3.625 4.078125 9.5 4.078125q2.90625 0 5.828125 -1.140625q2.921875 -1.140625 5.015625 -2.765625l0 -5.8125l-10.59375 0zm26.375 -0.21875q0 -4.375 2.15625 -8.46875q2.15625 -4.09375 6.109375 -6.25q3.953125 -2.15625 8.828125 -2.15625q7.53125 0 12.34375 4.890625q4.8125 4.890625 4.8125 12.359375q0 7.53125 -4.859375 12.484375q-4.859375 4.953125 -12.234375 4.953125q-4.5625 0 -8.703125 -2.0625q-4.140625 -2.0625 -6.296875 -6.046875q-2.15625 -3.984375 -2.15625 -9.703125zm9.0 0.46875q0 4.9375 2.34375 7.5625q2.34375 2.625 5.78125 2.625q3.4375 0 5.765625 -2.625q2.328125 -2.625 2.328125 -7.625q0 -4.875 -2.328125 -7.5q-2.328125 -2.625 -5.765625 -2.625q-3.4375 0 -5.78125 2.625q-2.34375 2.625 -2.34375 7.5625zm30.09375 -0.46875q0 -4.375 2.15625 -8.46875q2.15625 -4.09375 6.109375 -6.25q3.953125 -2.15625 8.828125 -2.15625q7.53125 0 12.34375 4.890625q4.8125 4.890625 4.8125 12.359375q0 7.53125 -4.859375 12.484375q-4.859375 4.953125 -12.234375 4.953125q-4.5625 0 -8.703125 -2.0625q-4.140625 -2.0625 -6.296875 -6.046875q-2.15625 -3.984375 -2.15625 -9.703125zm9.0 0.46875q0 4.9375 2.34375 7.5625q2.34375 2.625 5.78125 2.625q3.4375 0 5.765625 -2.625q2.328125 -2.625 2.328125 -7.625q0 -4.875 -2.328125 -7.5q-2.328125 -2.625 -5.765625 -2.625q-3.4375 0 -5.78125 2.625q-2.34375 2.625 -2.34375 7.5625zm31.3125 18.78125l10.03125 1.21875q0.25 1.75 1.15625 2.40625q1.25 0.9375 3.9375 0.9375q3.4375 0 5.15625 -1.03125q1.15625 -0.6875 1.75 -2.21875q0.40625 -1.09375 0.40625 -4.03125l0 -4.84375q-3.9375 5.375 -9.9375 5.375q-6.6875 0 -10.59375 -5.65625q-3.0625 -4.46875 -3.0625 -11.125q0 -8.34375 4.015625 -12.75q4.015625 -4.40625 9.984375 -4.40625q6.15625 0 10.15625 5.40625l0 -4.65625l8.21875 0l0 29.78125q0 5.875 -0.96875 8.78125q-0.96875 2.90625 -2.71875 4.5625q-1.75 1.65625 -4.671875 2.59375q-2.921875 0.9375 -7.390625 0.9375q-8.4375 0 -11.96875 -2.890625q-3.53125 -2.890625 -3.53125 -7.328125q0 -0.4375 0.03125 -1.0625zm7.84375 -19.46875q0 5.28125 2.046875 7.734375q2.046875 2.453125 5.046875 2.453125q3.21875 0 5.4375 -2.515625q2.21875 -2.515625 2.21875 -7.453125q0 -5.15625 -2.125 -7.65625q-2.125 -2.5 -5.375 -2.5q-3.15625 0 -5.203125 2.453125q-2.046875 2.453125 -2.046875 7.484375zm32.0625 17.28125l0 -45.8125l8.78125 0l0 45.8125l-8.78125 0zm37.0 -10.5625l8.75 1.46875q-1.6875 4.8125 -5.328125 7.328125q-3.640625 2.515625 -9.109375 2.515625q-8.65625 0 -12.8125 -5.65625q-3.28125 -4.53125 -3.28125 -11.4375q0 -8.25 4.3125 -12.921875q4.3125 -4.671875 10.90625 -4.671875q7.40625 0 11.6875 4.890625q4.28125 4.890625 4.09375 14.984375l-22.0 0q0.09375 3.90625 2.125 6.078125q2.03125 2.171875 5.0625 2.171875q2.0625 0 3.46875 -1.125q1.40625 -1.125 2.125 -3.625zm0.5 -8.875q-0.09375 -3.8125 -1.96875 -5.796875q-1.875 -1.984375 -4.5625 -1.984375q-2.875 0 -4.75 2.09375q-1.875 2.09375 -1.84375 5.6875l13.125 0zm31.375 4.53125l9.0 -0.875q0.8125 4.53125 3.296875 6.65625q2.484375 2.125 6.703125 2.125q4.46875 0 6.734375 -1.890625q2.265625 -1.890625 2.265625 -4.421875q0 -1.625 -0.953125 -2.765625q-0.953125 -1.140625 -3.328125 -1.984375q-1.625 -0.5625 -7.40625 -2.0q-7.4375 -1.84375 -10.4375 -4.53125q-4.21875 -3.78125 -4.21875 -9.21875q0 -3.5 1.984375 -6.546875q1.984375 -3.046875 5.71875 -4.640625q3.734375 -1.59375 9.015625 -1.59375q8.625 0 12.984375 3.78125q4.359375 3.78125 4.578125 10.09375l-9.25 0.40625q-0.59375 -3.53125 -2.546875 -5.078125q-1.953125 -1.546875 -5.859375 -1.546875q-4.03125 0 -6.3125 1.65625q-1.46875 1.0625 -1.46875 2.84375q0 1.625 1.375 2.78125q1.75 1.46875 8.5 3.0625q6.75 1.59375 9.984375 3.296875q3.234375 1.703125 5.0625 4.65625q1.828125 2.953125 1.828125 7.296875q0 3.9375 -2.1875 7.375q-2.1875 3.4375 -6.1875 5.109375q-4.0 1.671875 -9.96875 1.671875q-8.6875 0 -13.34375 -4.015625q-4.65625 -4.015625 -5.5625 -11.703125zm53.71875 -30.90625l0 16.84375q4.25 -4.96875 10.1562195 -4.96875q3.03125 0 5.46875 1.125q2.4375 1.125 3.671875 2.875q1.234375 1.75 1.6875 3.875q0.453125 2.125 0.453125 6.59375l0 19.46875l-8.78125 0l0 -17.53125q0 -5.21875 -0.5 -6.625q-0.5 -1.40625 -1.765625 -2.234375q-1.265625 -0.828125 -3.171875 -0.828125q-2.1875 0 -3.9062195 1.0625q-1.71875 1.0625 -2.515625 3.203125q-0.796875 2.140625 -0.796875 6.328125l0 16.625l-8.78125 0l0 -45.8125l8.78125 0zm49.56247 35.25l8.75 1.46875q-1.6875 4.8125 -5.328125 7.328125q-3.640625 2.515625 -9.109375 2.515625q-8.65625 0 -12.8125 -5.65625q-3.28125 -4.53125 -3.28125 -11.4375q0 -8.25 4.3125 -12.921875q4.3125 -4.671875 10.90625 -4.671875q7.40625 0 11.6875 4.890625q4.28125 4.890625 4.09375 14.984375l-22.0 0q0.09375 3.90625 2.125 6.078125q2.03125 2.171875 5.0625 2.171875q2.0625 0 3.46875 -1.125q1.40625 -1.125 2.125 -3.625zm0.5 -8.875q-0.09375 -3.8125 -1.96875 -5.796875q-1.875 -1.984375 -4.5625 -1.984375q-2.875 0 -4.75 2.09375q-1.875 2.09375 -1.84375 5.6875l13.125 0zm35.09375 8.875l8.75 1.46875q-1.6875 4.8125 -5.328125 7.328125q-3.640625 2.515625 -9.109375 2.515625q-8.65625 0 -12.8125 -5.65625q-3.28125 -4.53125 -3.28125 -11.4375q0 -8.25 4.3125 -12.921875q4.3125 -4.671875 10.90625 -4.671875q7.40625 0 11.6875 4.890625q4.28125 4.890625 4.09375 14.984375l-22.0 0q0.09375 3.90625 2.125 6.078125q2.03125 2.171875 5.0625 2.171875q2.0625 0 3.46875 -1.125q1.40625 -1.125 2.125 -3.625zm0.5 -8.875q-0.09375 -3.8125 -1.96875 -5.796875q-1.875 -1.984375 -4.5625 -1.984375q-2.875 0 -4.75 2.09375q-1.875 2.09375 -1.84375 5.6875l13.125 0zm31.09375 -13.75l0 7.0l-6.0 0l0 13.375q0 4.0625 0.171875 4.734375q0.171875 0.671875 0.78125 1.109375q0.609375 0.4375 1.484375 0.4375q1.21875 0 3.53125 -0.84375l0.75 6.8125q-3.0625 1.3125 -6.9375 1.3125q-2.375 0 -4.28125 -0.796875q-1.90625 -0.796875 -2.796875 -2.0625q-0.890625 -1.265625 -1.234375 -3.421875q-0.28125 -1.53125 -0.28125 -6.1875l0 -14.46875l-4.03125 0l0 -7.0l4.03125 0l0 -6.59375l8.8125 -5.125l0 11.71875l6.0 0z" fill-rule="nonzero"/><path fill="#595959" d="m409.22046 177.65092l0 110.157486l88.12601 0l0 -22.031494l44.062958 44.06299l-44.062958 44.06299l0 -22.031494l-132.189 0l0 -154.22047z" fill-rule="evenodd"/><path stroke="#595959" stroke-width="1.0" stroke-linejoin="round" stroke-linecap="butt" d="m409.22046 177.65092l0 110.157486l88.12601 0l0 -22.031494l44.062958 44.06299l-44.062958 44.06299l0 -22.031494l-132.189 0l0 -154.22047z" fill-rule="evenodd"/><path fill="#000000" fill-opacity="0.0" d="m568.0315 227.69029l349.6693 0l0 143.81102l-349.6693 0z" fill-rule="evenodd"/><path fill="#000000" d="m578.9065 309.7233l0 -7.5q2.28125 -0.125 3.4375 -0.6875q1.15625 -0.5625 2.0 -1.890625q0.84375 -1.328125 1.15625 -3.328125q0.25 -1.5 0.25 -5.21875q0 -6.0625 0.5625 -8.453125q0.5625 -2.390625 2.03125 -3.84375q1.46875 -1.453125 4.28125 -2.296875q1.90625 -0.5625 6.0 -0.5625l1.65625 0l0 7.46875q-3.46875 0 -4.453125 0.390625q-0.984375 0.390625 -1.453125 1.1875q-0.46875 0.796875 -0.46875 2.734375q0 1.96875 -0.28125 7.46875q-0.15625 3.09375 -0.8125 5.015625q-0.65625 1.921875 -1.671875 3.171875q-1.015625 1.25 -3.109375 2.59375q1.84375 1.0625 3.015625 2.484375q1.171875 1.421875 1.796875 3.453125q0.625 2.03125 0.8125 5.4375q0.21875 5.1875 0.21875 6.625q0 2.0625 0.5 2.875q0.5 0.8125 1.515625 1.234375q1.015625 0.421875 4.390625 0.421875l0 7.5l-1.65625 0q-4.21875 0 -6.46875 -0.671875q-2.25 -0.671875 -3.796875 -2.234375q-1.546875 -1.5625 -2.078125 -3.859375q-0.53125 -2.296875 -0.53125 -7.234375q0 -5.75 -0.5 -7.46875q-0.6875 -2.5 -2.078125 -3.578125q-1.390625 -1.078125 -4.265625 -1.234375zm44.21875 -33.0l9.21875 0l0 29.0q0 5.6875 -1.0 8.75q-1.34375 4.0 -4.875 6.421875q-3.53125 2.421875 -9.3125 2.421875q-6.78125 0 -10.4375 -3.796875q-3.65625 -3.796875 -3.6875 -11.140625l8.71875 -1.0q0.15625 3.9375 1.15625 5.5625q1.5 2.46875 4.5625 2.46875q3.09375 0 4.375 -1.765625q1.28125 -1.765625 1.28125 -7.328125l0 -29.59375zm16.71875 30.90625l9.0 -0.875q0.8125 4.53125 3.296875 6.65625q2.484375 2.125 6.703125 2.125q4.46875 0 6.734375 -1.890625q2.265625 -1.890625 2.265625 -4.421875q0 -1.625 -0.953125 -2.765625q-0.953125 -1.140625 -3.328125 -1.984375q-1.625 -0.5625 -7.40625 -2.0q-7.4375 -1.84375 -10.4375 -4.53125q-4.21875 -3.78125 -4.21875 -9.21875q0 -3.5 1.984375 -6.546875q1.984375 -3.046875 5.71875 -4.640625q3.734375 -1.59375 9.015625 -1.59375q8.625 0 12.984375 3.78125q4.359375 3.78125 4.578125 10.09375l-9.25 0.40625q-0.59375 -3.53125 -2.546875 -5.078125q-1.953125 -1.546875 -5.859375 -1.546875q-4.03125 0 -6.3125 1.65625q-1.46875 1.0625 -1.46875 2.84375q0 1.625 1.375 2.78125q1.75 1.46875 8.5 3.0625q6.75 1.59375 9.984375 3.296875q3.234375 1.703125 5.0625 4.65625q1.828125 2.953125 1.828125 7.296875q0 3.9375 -2.1875 7.375q-2.1875 3.4375 -6.1875 5.109375q-4.0 1.671875 -9.96875 1.671875q-8.6875 0 -13.34375 -4.015625q-4.65625 -4.015625 -5.5625 -11.703125zm43.15625 -7.71875q0 -7.0 2.09375 -11.75q1.5625 -3.5 4.265625 -6.28125q2.703125 -2.78125 5.921875 -4.125q4.28125 -1.8125 9.875 -1.8125q10.125 0 16.203125 6.28125q6.078125 6.28125 6.078125 17.46875q0 11.09375 -6.03125 17.359375q-6.03125 6.265625 -16.125 6.265625q-10.21875 0 -16.25 -6.234375q-6.03125 -6.234375 -6.03125 -17.171875zm9.53125 -0.3125q0 7.78125 3.59375 11.796875q3.59375 4.015625 9.125 4.015625q5.53125 0 9.078125 -3.984375q3.546875 -3.984375 3.546875 -11.953125q0 -7.875 -3.453125 -11.75q-3.453125 -3.875 -9.171875 -3.875q-5.71875 0 -9.21875 3.921875q-3.5 3.921875 -3.5 11.828125zm42.21875 22.9375l0 -45.8125l9.0 0l18.75 30.59375l0 -30.59375l8.59375 0l0 45.8125l-9.28125 0l-18.46875 -29.875l0 29.875l-8.59375 0zm64.25 -12.8125q-2.28125 0.125 -3.4375 0.6875q-1.15625 0.5625 -1.984375 1.890625q-0.828125 1.328125 -1.171875 3.328125q-0.25 1.5 -0.25 5.1875q0 6.0625 -0.546875 8.46875q-0.546875 2.40625 -2.015625 3.859375q-1.46875 1.453125 -4.3125 2.296875q-1.90625 0.5625 -6.0 0.5625l-1.65625 0l0 -7.5q3.34375 0 4.375 -0.421875q1.03125 -0.421875 1.515625 -1.21875q0.484375 -0.796875 0.5 -2.703125q0.015625 -1.90625 0.265625 -7.28125q0.15625 -3.25 0.84375 -5.203125q0.6875 -1.953125 1.828125 -3.3125q1.140625 -1.359375 2.921875 -2.390625q-2.3125 -1.5 -3.375 -2.9375q-1.46875 -2.0625 -2.0 -5.25q-0.34375 -2.1875 -0.5 -9.625q-0.03125 -2.34375 -0.421875 -3.125q-0.390625 -0.78125 -1.40625 -1.203125q-1.015625 -0.421875 -4.546875 -0.421875l0 -7.46875l1.65625 0q4.21875 0 6.46875 0.65625q2.25 0.65625 3.78125 2.234375q1.53125 1.578125 2.078125 3.875q0.546875 2.296875 0.546875 7.234375q0 5.71875 0.46875 7.46875q0.6875 2.5 2.09375 3.578125q1.40625 1.078125 4.28125 1.234375l0 7.5z" fill-rule="nonzero"/><path fill="#000000" fill-opacity="0.0" d="m311.59317 386.29135l174.83466 0l0 50.771637l-174.83466 0z" fill-rule="evenodd"/><path fill="#000000" d="m323.15567 423.67715l0 -23.65625l4.8125 0l0 19.640625l11.96875 0l0 4.015625l-16.78125 0zm20.18628 -19.625l0 -4.234375l4.578125 0l0 4.234375l-4.578125 0zm0 19.625l0 -17.28125l4.578125 0l0 17.28125l-4.578125 0zm14.009644 0l-6.96875 -17.28125l4.8125 0l3.25 8.8125l0.9375 2.953125q0.375 -1.125 0.484375 -1.484375q0.21875 -0.734375 0.484375 -1.46875l3.28125 -8.8125l4.703125 0l-6.859375 17.28125l-4.125 0zm23.801147 -5.5l4.546875 0.765625q-0.875 2.5 -2.78125 3.8125q-1.890625 1.3125 -4.734375 1.3125q-4.5 0 -6.671875 -2.953125q-1.703125 -2.359375 -1.703125 -5.953125q0 -4.296875 2.234375 -6.71875q2.25 -2.4375 5.6875 -2.4375q3.859375 0 6.078125 2.546875q2.234375 2.546875 2.140625 7.796875l-11.453125 0q0.046875 2.046875 1.09375 3.171875q1.0625 1.125 2.640625 1.125q1.078125 0 1.8125 -0.578125q0.734375 -0.59375 1.109375 -1.890625zm0.25 -4.625q-0.046875 -1.984375 -1.03125 -3.015625q-0.96875 -1.03125 -2.359375 -1.03125q-1.5 0 -2.484375 1.09375q-0.96875 1.078125 -0.953125 2.953125l6.828125 0z" fill-rule="nonzero"/><path fill="#000000" d="m305.95276 411.67715l0 0c0 -4.279114 3.1586914 -7.7480164 7.0551147 -7.7480164l0 0c1.8711243 0 3.665619 0.8163147 4.9887085 2.2693481c1.3231201 1.4530334 2.0664062 3.423767 2.0664062 5.478668l0 0c0 4.2791443 -3.1586914 7.748047 -7.0551147 7.748047l0 0c-3.8964233 0 -7.0551147 -3.4689026 -7.0551147 -7.748047z" fill-rule="evenodd"/><path stroke="#000000" stroke-width="1.0" stroke-linejoin="round" stroke-linecap="butt" d="m305.95276 411.67715l0 0c0 -4.279114 3.1586914 -7.7480164 7.0551147 -7.7480164l0 0c1.8711243 0 3.665619 0.8163147 4.9887085 2.2693481c1.3231201 1.4530334 2.0664062 3.423767 2.0664062 5.478668l0 0c0 4.2791443 -3.1586914 7.748047 -7.0551147 7.748047l0 0c-3.8964233 0 -7.0551147 -3.4689026 -7.0551147 -7.748047z" fill-rule="evenodd"/></g></svg>